# xmcd
#
# Track frame offsets:
#	150
#	15375
#	26665
#	43538
#	55628
#	64473
#	75052
#	88852
#	101443
#	111974
#	123017
#	138913
#	150505
#	164860
#	176027
#
# Disc length: 2499 seconds
# Revision: 0
# Processed by: cddbd v1.5.2PL0 Copyright (c) Steve Scherf et al.
# Submitted via: dBpowerAMP V12.0
#
DISCID=b609c10f
DTITLE=The Howie Brothers - Sentimental Favorites 
DYEAR=2016
DGENRE=Country
TTITLE0=Give Me A Sentimental Song
TTITLE1=Just Out Of Reach ( Of My Two Open Arms)
TTITLE2=I Dont Get Sentimental
TTITLE3=There Goes My Everything
TTITLE4=Dont Sit Under The Apple Tree (Medley) 
TTITLE5=I Can't Stop Loving You
TTITLE6=Getting Sentimental
TTITLE7=I Love You Because
TTITLE8=Who Where You With Last Night? (Medley)
TTITLE9=He'll Have To Go
TTITLE10=Old Bits Of Paper In A Drawer
TTITLE11=It Keeps Right On A Hurtin'
TTITLE12=Little Arrows (Medley)
TTITLE13=My Happiness
TTITLE14=Tammy (Medley)
EXTD=
EXTT0=
EXTT1=
EXTT2=
EXTT3=
EXTT4=
EXTT5=
EXTT6=
EXTT7=
EXTT8=
EXTT9=
EXTT10=
EXTT11=
EXTT12=
EXTT13=
EXTT14=
PLAYORDER=
